<mxfile host="app.diagrams.net" modified="2022-11-04T08:25:16.467Z" agent="5.0 (Windows NT 10.0; Win64; x64) AppleWebKit/537.36 (KHTML, like Gecko) Chrome/106.0.0.0 Safari/537.36" etag="fpVggD0SNk5PepQm4uk3" version="20.5.1" type="github">
  <diagram id="4sM6ASObdVb9LUDv15Ly" name="交互流程">
    <mxGraphModel dx="513" dy="1447" grid="0" gridSize="10" guides="1" tooltips="1" connect="1" arrows="1" fold="1" page="1" pageScale="1" pageWidth="827" pageHeight="1169" math="0" shadow="0">
      <root>
        <mxCell id="0" />
        <mxCell id="1" parent="0" />
        <mxCell id="APWTNTeZ0nBAhyDcR_AE-1" value="物流系统" style="swimlane;childLayout=stackLayout;resizeParent=1;resizeParentMax=0;horizontal=0;startSize=20;horizontalStack=0;" parent="1" vertex="1">
          <mxGeometry x="139" y="-43" width="480" height="1859" as="geometry" />
        </mxCell>
        <mxCell id="APWTNTeZ0nBAhyDcR_AE-2" value="物流计划" style="swimlane;startSize=20;horizontal=0;" parent="APWTNTeZ0nBAhyDcR_AE-1" vertex="1">
          <mxGeometry x="20" width="460" height="179" as="geometry" />
        </mxCell>
        <mxCell id="APWTNTeZ0nBAhyDcR_AE-17" value="交付中心" style="rounded=0;whiteSpace=wrap;html=1;" parent="APWTNTeZ0nBAhyDcR_AE-2" vertex="1">
          <mxGeometry x="105" y="5" width="237" height="36" as="geometry" />
        </mxCell>
        <mxCell id="Nbd2facP_n2BsDl52_lb-2" style="edgeStyle=orthogonalEdgeStyle;rounded=0;orthogonalLoop=1;jettySize=auto;html=1;exitX=0.25;exitY=0;exitDx=0;exitDy=0;entryX=0.25;entryY=1;entryDx=0;entryDy=0;endArrow=open;endFill=0;" edge="1" parent="APWTNTeZ0nBAhyDcR_AE-2" source="APWTNTeZ0nBAhyDcR_AE-18" target="APWTNTeZ0nBAhyDcR_AE-17">
          <mxGeometry relative="1" as="geometry" />
        </mxCell>
        <mxCell id="Nbd2facP_n2BsDl52_lb-4" style="edgeStyle=orthogonalEdgeStyle;rounded=0;orthogonalLoop=1;jettySize=auto;html=1;exitX=0.75;exitY=0;exitDx=0;exitDy=0;entryX=0.75;entryY=1;entryDx=0;entryDy=0;endArrow=open;endFill=0;" edge="1" parent="APWTNTeZ0nBAhyDcR_AE-2" source="APWTNTeZ0nBAhyDcR_AE-18" target="APWTNTeZ0nBAhyDcR_AE-17">
          <mxGeometry relative="1" as="geometry" />
        </mxCell>
        <mxCell id="APWTNTeZ0nBAhyDcR_AE-18" value="物流订单" style="rounded=0;whiteSpace=wrap;html=1;" parent="APWTNTeZ0nBAhyDcR_AE-2" vertex="1">
          <mxGeometry x="105" y="133" width="237" height="36" as="geometry" />
        </mxCell>
        <mxCell id="Nbd2facP_n2BsDl52_lb-3" value="0101-订阅履约单创建事件，创建物流计划单" style="text;html=1;strokeColor=none;fillColor=none;align=center;verticalAlign=middle;whiteSpace=wrap;rounded=0;" vertex="1" parent="APWTNTeZ0nBAhyDcR_AE-2">
          <mxGeometry x="44" y="72" width="112" height="30" as="geometry" />
        </mxCell>
        <mxCell id="Nbd2facP_n2BsDl52_lb-5" value="0102-订阅履约单取消事件，取消物流计划单" style="text;html=1;strokeColor=none;fillColor=none;align=center;verticalAlign=middle;whiteSpace=wrap;rounded=0;" vertex="1" parent="APWTNTeZ0nBAhyDcR_AE-2">
          <mxGeometry x="171" y="68" width="112" height="30" as="geometry" />
        </mxCell>
        <mxCell id="APWTNTeZ0nBAhyDcR_AE-3" value="Lane 2" style="swimlane;startSize=20;horizontal=0;" parent="APWTNTeZ0nBAhyDcR_AE-1" vertex="1">
          <mxGeometry x="20" y="179" width="460" height="120" as="geometry" />
        </mxCell>
        <mxCell id="APWTNTeZ0nBAhyDcR_AE-4" value="Lane 3" style="swimlane;startSize=20;horizontal=0;" parent="APWTNTeZ0nBAhyDcR_AE-1" vertex="1">
          <mxGeometry x="20" y="299" width="460" height="120" as="geometry" />
        </mxCell>
        <mxCell id="APWTNTeZ0nBAhyDcR_AE-16" style="swimlane;startSize=20;horizontal=0;" parent="APWTNTeZ0nBAhyDcR_AE-1" vertex="1">
          <mxGeometry x="20" y="419" width="460" height="120" as="geometry" />
        </mxCell>
        <mxCell id="APWTNTeZ0nBAhyDcR_AE-15" style="swimlane;startSize=20;horizontal=0;" parent="APWTNTeZ0nBAhyDcR_AE-1" vertex="1">
          <mxGeometry x="20" y="539" width="460" height="120" as="geometry" />
        </mxCell>
        <mxCell id="APWTNTeZ0nBAhyDcR_AE-14" style="swimlane;startSize=20;horizontal=0;" parent="APWTNTeZ0nBAhyDcR_AE-1" vertex="1">
          <mxGeometry x="20" y="659" width="460" height="120" as="geometry" />
        </mxCell>
        <mxCell id="APWTNTeZ0nBAhyDcR_AE-13" style="swimlane;startSize=20;horizontal=0;" parent="APWTNTeZ0nBAhyDcR_AE-1" vertex="1">
          <mxGeometry x="20" y="779" width="460" height="120" as="geometry" />
        </mxCell>
        <mxCell id="APWTNTeZ0nBAhyDcR_AE-12" style="swimlane;startSize=20;horizontal=0;" parent="APWTNTeZ0nBAhyDcR_AE-1" vertex="1">
          <mxGeometry x="20" y="899" width="460" height="120" as="geometry" />
        </mxCell>
        <mxCell id="APWTNTeZ0nBAhyDcR_AE-11" style="swimlane;startSize=20;horizontal=0;" parent="APWTNTeZ0nBAhyDcR_AE-1" vertex="1">
          <mxGeometry x="20" y="1019" width="460" height="120" as="geometry" />
        </mxCell>
        <mxCell id="APWTNTeZ0nBAhyDcR_AE-10" style="swimlane;startSize=20;horizontal=0;" parent="APWTNTeZ0nBAhyDcR_AE-1" vertex="1">
          <mxGeometry x="20" y="1139" width="460" height="120" as="geometry" />
        </mxCell>
        <mxCell id="APWTNTeZ0nBAhyDcR_AE-9" style="swimlane;startSize=20;horizontal=0;" parent="APWTNTeZ0nBAhyDcR_AE-1" vertex="1">
          <mxGeometry x="20" y="1259" width="460" height="120" as="geometry" />
        </mxCell>
        <mxCell id="APWTNTeZ0nBAhyDcR_AE-8" style="swimlane;startSize=20;horizontal=0;" parent="APWTNTeZ0nBAhyDcR_AE-1" vertex="1">
          <mxGeometry x="20" y="1379" width="460" height="120" as="geometry" />
        </mxCell>
        <mxCell id="APWTNTeZ0nBAhyDcR_AE-7" style="swimlane;startSize=20;horizontal=0;" parent="APWTNTeZ0nBAhyDcR_AE-1" vertex="1">
          <mxGeometry x="20" y="1499" width="460" height="120" as="geometry" />
        </mxCell>
        <mxCell id="APWTNTeZ0nBAhyDcR_AE-6" style="swimlane;startSize=20;horizontal=0;" parent="APWTNTeZ0nBAhyDcR_AE-1" vertex="1">
          <mxGeometry x="20" y="1619" width="460" height="120" as="geometry" />
        </mxCell>
        <mxCell id="APWTNTeZ0nBAhyDcR_AE-5" style="swimlane;startSize=20;horizontal=0;" parent="APWTNTeZ0nBAhyDcR_AE-1" vertex="1">
          <mxGeometry x="20" y="1739" width="460" height="120" as="geometry" />
        </mxCell>
      </root>
    </mxGraphModel>
  </diagram>
</mxfile>
